<?xml version="1.0" encoding="utf-8"?>
<svg viewBox="39.097 67.409 245.84 105.894" xmlns="http://www.w3.org/2000/svg">
  <rect width="245.84" height="105.894" rx="25.482" fill="white" style="" x="39.097" y="67.409"/>
  <path d="M129.057 85.7072C128.738 85.556 128.419 85.435 128.132 85.2839C125.961 84.3466 123.726 83.5303 121.492 82.7443C120.885 82.5629 120.311 82.3815 119.704 82.1698C117.693 81.5349 115.682 80.9605 113.607 80.4767C112.809 80.2953 111.979 80.1139 111.149 79.9023C109.298 79.479 107.382 79.1465 105.499 78.9046C104.541 78.7534 103.552 78.6325 102.626 78.5418C100.838 78.3302 99.0188 78.179 97.1993 78.0581C96.1778 77.9976 95.1563 77.9371 94.0709 77.9069C93.1452 77.8767 92.2514 77.8767 91.2937 77.8767C90.4318 77.8767 89.6018 77.8767 88.708 77.9069C87.6865 77.9371 86.6012 77.9674 85.5797 78.0581C83.7601 78.179 81.9406 78.3302 80.153 78.5418C79.1634 78.6627 78.2057 78.7534 77.28 78.9046C75.3966 79.2069 73.4813 79.5395 71.6298 79.9023C70.7998 80.0837 70.0018 80.2651 69.1718 80.4767C67.1288 80.9605 65.0858 81.5349 63.0747 82.1698C62.4682 82.3512 61.8936 82.5326 61.2552 82.7443C58.9887 83.5001 56.7861 84.3164 54.6154 85.2536C54.2962 85.4048 53.977 85.5257 53.6578 85.6769C51.1679 86.7653 48.7099 87.9747 46.3477 89.2445C46.3477 91.8446 46.4754 94.3539 46.6988 96.8633C46.7307 97.2866 46.7626 97.6494 46.8265 98.0727C47.0499 100.28 47.3692 102.457 47.8161 104.603C47.9438 105.268 48.1034 105.903 48.1991 106.599C48.5822 108.503 49.1249 110.378 49.6356 112.222C49.8591 113.038 50.1464 113.915 50.4337 114.731C50.9763 116.424 51.5828 118.057 52.2532 119.69C52.6363 120.627 53.0513 121.564 53.4343 122.471C55.5731 120.718 57.8396 119.085 60.2018 117.634C62.5001 116.213 64.9262 114.973 67.448 113.885C69.906 112.796 72.4598 111.889 75.1093 111.194C76.9927 110.68 78.9719 110.227 80.951 109.894C81.7171 109.773 82.4513 109.682 83.2175 109.561C85.7074 109.229 88.1973 109.047 90.783 109.047C90.9426 109.047 91.1022 109.047 91.2618 109.047C91.4533 109.047 91.7087 109.047 91.9002 109.047C94.4859 109.078 97.0077 109.259 99.4657 109.622C100.232 109.743 100.998 109.834 101.764 109.985C103.743 110.317 105.69 110.771 107.574 111.285C110.223 112.041 112.745 112.948 115.235 114.006C117.757 115.094 120.183 116.364 122.481 117.785C124.844 119.236 127.11 120.869 129.217 122.653C129.664 121.715 130.047 120.748 130.43 119.78C131.068 118.208 131.643 116.545 132.218 114.943C129.951 113.25 127.621 111.678 125.131 110.257C122.769 108.866 120.279 107.657 117.693 106.599C115.203 105.54 112.618 104.664 109.968 103.908C109.01 103.636 108.021 103.394 107.031 103.152C105.371 102.789 103.679 102.426 101.956 102.184C100.487 101.973 98.9869 101.761 97.4866 101.61C96.2735 101.489 94.9967 101.429 93.7198 101.398C92.8898 101.368 92.0598 101.368 91.1979 101.368C90.3999 101.368 89.6657 101.368 88.8676 101.398C87.5908 101.429 86.3458 101.519 85.1009 101.61C83.6005 101.731 82.1002 101.912 80.6318 102.124C78.9399 102.396 77.28 102.729 75.62 103.091C74.6305 103.303 73.6409 103.575 72.6513 103.847C70.0018 104.603 67.4161 105.51 64.9262 106.508C62.3405 107.566 59.8506 108.806 57.4884 110.136C57.4884 110.106 57.4565 110.015 57.4565 109.985C56.6904 107.445 56.1158 104.845 55.6369 102.184C55.6369 102.124 55.605 102.064 55.605 102.003C55.1262 99.3425 54.807 96.6517 54.6474 93.9004C57.233 92.6609 59.8826 91.5725 62.5959 90.605C62.6278 90.605 62.6278 90.5748 62.6598 90.5748C65.3093 89.6375 68.0546 88.8514 70.7998 88.1863H70.8318C73.4813 87.5514 76.1627 87.0374 78.908 86.6444C78.9399 86.6444 79.0357 86.6444 79.0995 86.6142C81.7171 86.2514 84.3666 85.9793 87.0481 85.8583C87.1119 85.8583 87.2396 85.8583 87.3354 85.8583C88.6123 85.8281 89.9211 85.7978 91.1979 85.7978C92.5387 85.7978 93.9432 85.8281 95.2201 85.8583C95.284 85.8583 95.4116 85.8583 95.5074 85.8583C98.1888 86.0095 100.838 86.2211 103.456 86.6142C103.52 86.6142 103.584 86.6142 103.647 86.6444C106.393 87.0677 109.074 87.5816 111.724 88.2165H111.756C114.533 88.8817 117.246 89.7282 119.896 90.6655C119.928 90.6655 119.96 90.6655 119.96 90.6957C122.705 91.6632 125.354 92.7516 127.908 93.9911C130.59 95.261 133.207 96.6819 135.729 98.2541C135.761 97.8308 135.793 97.3773 135.857 96.9843C136.08 94.5051 136.208 91.9957 136.208 89.4561C134.069 88.0351 131.611 86.856 129.057 85.7072Z" fill="black"/>
  <path d="M113.392 121.104C110.883 119.983 108.278 119.049 105.576 118.364C103.261 117.741 100.816 117.274 98.4039 117.025C97.9215 116.994 97.439 116.9 97.0209 116.869C95.5736 116.745 94.1263 116.682 92.6468 116.682C91.1994 116.682 89.8164 116.714 88.4334 116.838C87.951 116.869 87.5007 116.9 87.0504 116.994C84.5739 117.274 82.1938 117.679 79.846 118.301C77.1443 118.986 74.5069 119.92 72.0304 121.041C69.5217 122.162 67.1416 123.47 64.8581 124.964C62.5424 126.521 60.3553 128.202 58.329 130.102C59.1331 131.565 60.0015 132.997 60.9342 134.429C61.5453 135.363 62.1242 136.266 62.7675 137.169C63.7645 138.601 64.7616 139.971 65.823 141.341C66.4662 142.151 67.1095 142.96 67.7849 143.739C68.9749 145.171 70.2293 146.51 71.4836 147.88C72.0947 148.533 72.7058 149.156 73.3491 149.779C75.0537 147.693 77.1443 145.887 79.4922 144.424C82.0009 142.867 84.8312 141.746 87.8545 141.154C89.4627 140.843 91.0708 140.687 92.8076 140.687C94.5765 140.687 96.249 140.874 97.8571 141.186C100.88 141.808 103.679 142.929 106.187 144.517C104.225 146.447 102.167 148.253 100.012 149.997C99.9477 150.059 99.8512 150.121 99.7869 150.184C99.5618 150.37 99.3045 150.557 99.0793 150.713C98.5969 151.087 98.1145 151.46 97.5998 151.834C97.5677 151.865 97.5033 151.896 97.4712 151.927C97.0209 152.27 96.5706 152.581 96.0882 152.923C95.9274 153.048 95.7344 153.173 95.5736 153.266C95.2198 153.515 94.866 153.764 94.5122 153.982C93.9654 154.356 93.4187 154.698 92.8719 155.072C90.717 153.671 88.5943 152.176 86.568 150.588C83.5769 151.336 81.0514 152.861 78.6391 154.574C78.8643 154.76 78.8489 154.76 79.1062 154.947C79.2027 155.041 79.2992 155.134 79.46 155.259C81.2611 156.722 83.1266 158.154 85.0563 159.493C85.378 159.711 85.6996 159.929 86.0212 160.147C88.2405 161.704 90.5562 163.105 92.9684 164.443C94.1263 163.79 95.2841 163.105 96.4098 162.42C97.5355 161.735 98.6612 160.987 99.7548 160.24C100.109 160.022 100.462 159.742 100.816 159.493C102.682 158.185 104.515 156.784 106.284 155.321C106.573 155.072 106.863 154.823 107.152 154.574C107.41 154.356 107.667 154.138 107.892 153.92C109.404 152.612 110.883 151.242 112.33 149.841C113.006 149.187 113.649 148.533 114.292 147.849C115.515 146.541 116.737 145.171 117.895 143.832C118.57 143.023 119.245 142.182 119.921 141.31C92.2286 123.594 73.9923 138.352 73.9923 138.352C73.928 138.29 73.8637 138.197 73.7993 138.134C72.159 136.142 70.6152 134.056 69.1357 131.907C71.355 130.351 73.7993 129.043 76.3402 128.016C78.9776 126.895 81.7114 126.054 84.5417 125.494C86.761 125.058 89.0445 124.809 91.3602 124.715C91.8427 124.715 92.3251 124.684 92.8076 124.684C93.3543 124.684 93.869 124.684 94.4157 124.715C96.7314 124.778 99.015 125.058 101.202 125.525C104.065 126.116 106.798 126.957 109.404 128.078C111.944 129.168 114.357 130.475 116.576 132.001C118.859 133.558 120.95 135.332 122.848 137.294C123.491 136.36 124.134 135.395 124.713 134.429C125.582 133.028 126.418 131.658 127.222 130.226C125.099 128.327 122.944 126.583 120.628 125.058C118.313 123.532 115.9 122.224 113.392 121.104Z" fill="black"/>
  <path d="M170.11 114.54V108.586H180.27V117.043L173.586 123.809H151.795V81.6236L159.014 74.8916H180.27V93.3624H170.11V84.1947H161.955V114.54H170.11Z" fill="black"/>
  <path d="M203.164 123.809L197.148 106.116H194.475V123.809H184.348V81.7928L191.701 74.8916H212.389V105.981H206.907L213.324 123.809H203.164ZM202.262 96.9483V84.1947H194.475V96.9483H202.262Z" fill="black"/>
  <path d="M217.101 74.8916H240.563V84.1947H227.127V93.633H239.894V102.767H227.261V114.54H240.897V123.809H217.101V74.8916Z" fill="black"/>
  <path d="M244.64 74.8916H265.429L273.216 82.6385V117.043L266.431 123.809H244.64V74.8916ZM263.056 114.54V84.1947H254.767V114.54H263.056Z" fill="black"/>
  <path d="M168.044 164.443H151.185V154.784H157.61V158.562H161.597V153.625L151.397 145.833V133.404H167.853V142.634H162.021V139.329H157.822V143.386L168.044 151.156V164.443Z" fill="black"/>
  <path d="M177.248 146.155H182.762V133.404H189.187V164.443H182.762V152.036H177.248V164.443H170.822V133.404H177.248V146.155Z" fill="black"/>
  <path d="M198.37 142.935V164.443H191.944V142.935H198.37ZM198.37 133.404V141.046H191.944V133.404H198.37Z" fill="black"/>
  <path d="M200.766 133.404H215.653V139.307H207.128V145.296H215.229V151.092H207.213V158.562H215.865V164.443H200.766V133.404Z" fill="black"/>
  <path d="M218.241 164.443V133.404H224.666V158.562H233.658V164.443H218.241Z" fill="black"/>
  <path d="M236.436 133.404H249.627L254.568 138.32V160.15L250.263 164.443H236.436V133.404ZM248.121 158.562V139.307H242.862V158.562H248.121Z" fill="black"/>
  <path d="M273.993 164.443H257.134V154.784H263.56V158.562H267.547V153.625L257.346 145.833V133.404H273.803V142.634H267.971V139.329H263.772V143.386L273.993 151.156V164.443Z" fill="black"/>
</svg>