<?xml version="1.0" encoding="utf-8"?>
<svg viewBox="33.196 67.14 262.557 104.275" xmlns="http://www.w3.org/2000/svg">
  <rect x="33.196" width="262.557" height="104.275" rx="25.482" fill="black" style="" y="67.14"/>
  <path d="M129.089 85.7072C128.769 85.556 128.45 85.435 128.163 85.2839C125.992 84.3466 123.758 83.5303 121.523 82.7443C120.917 82.5629 120.342 82.3815 119.735 82.1698C117.724 81.5349 115.713 80.9605 113.638 80.4767C112.84 80.2953 112.01 80.1139 111.18 79.9023C109.329 79.479 107.414 79.1465 105.53 78.9046C104.573 78.7534 103.583 78.6325 102.657 78.5418C100.87 78.3302 99.0501 78.179 97.2305 78.0581C96.209 77.9976 95.1875 77.9371 94.1022 77.9069C93.1764 77.8767 92.2826 77.8767 91.325 77.8767C90.4631 77.8767 89.6331 77.8767 88.7393 77.9069C87.7178 77.9371 86.6324 77.9674 85.6109 78.0581C83.7914 78.179 81.9718 78.3302 80.1842 78.5418C79.1946 78.6627 78.237 78.7534 77.3112 78.9046C75.4278 79.2069 73.5125 79.5395 71.6611 79.9023C70.8311 80.0837 70.033 80.2651 69.2031 80.4767C67.1601 80.9605 65.1171 81.5349 63.106 82.1698C62.4995 82.3512 61.9249 82.5326 61.2864 82.7443C59.02 83.5001 56.8174 84.3164 54.6467 85.2536C54.3275 85.4048 54.0083 85.5257 53.689 85.6769C51.1991 86.7653 48.7411 87.9747 46.3789 89.2445C46.3789 91.8446 46.5066 94.3539 46.7301 96.8633C46.762 97.2866 46.7939 97.6494 46.8577 98.0727C47.0812 100.28 47.4004 102.457 47.8473 104.603C47.975 105.268 48.1346 105.903 48.2304 106.599C48.6135 108.503 49.1561 110.378 49.6669 112.222C49.8903 113.038 50.1776 113.915 50.4649 114.731C51.0076 116.424 51.6141 118.057 52.2845 119.69C52.6675 120.627 53.0825 121.564 53.4656 122.471C55.6043 120.718 57.8708 119.085 60.233 117.634C62.5314 116.213 64.9575 114.973 67.4793 113.885C69.9373 112.796 72.491 111.889 75.1406 111.194C77.024 110.68 79.0031 110.227 80.9823 109.894C81.7484 109.773 82.4826 109.682 83.2487 109.561C85.7386 109.229 88.2285 109.047 90.8142 109.047C90.9738 109.047 91.1334 109.047 91.293 109.047C91.4846 109.047 91.7399 109.047 91.9315 109.047C94.5171 109.078 97.039 109.259 99.497 109.622C100.263 109.743 101.029 109.834 101.795 109.985C103.775 110.317 105.722 110.771 107.605 111.285C110.255 112.041 112.776 112.948 115.266 114.006C117.788 115.094 120.214 116.364 122.513 117.785C124.875 119.236 127.141 120.869 129.248 122.653C129.695 121.715 130.078 120.748 130.461 119.78C131.1 118.208 131.674 116.545 132.249 114.943C129.982 113.25 127.652 111.678 125.162 110.257C122.8 108.866 120.31 107.657 117.724 106.599C115.234 105.54 112.649 104.664 109.999 103.908C109.042 103.636 108.052 103.394 107.062 103.152C105.403 102.789 103.711 102.426 101.987 102.184C100.518 101.973 99.0181 101.761 97.5178 101.61C96.3048 101.489 95.0279 101.429 93.751 101.398C92.9211 101.368 92.0911 101.368 91.2292 101.368C90.4311 101.368 89.6969 101.368 88.8989 101.398C87.622 101.429 86.3771 101.519 85.1321 101.61C83.6318 101.731 82.1314 101.912 80.663 102.124C78.9712 102.396 77.3112 102.729 75.6513 103.091C74.6617 103.303 73.6721 103.575 72.6826 103.847C70.033 104.603 67.4474 105.51 64.9575 106.508C62.3718 107.566 59.8819 108.806 57.5197 110.136C57.5197 110.106 57.4877 110.015 57.4877 109.985C56.7216 107.445 56.147 104.845 55.6682 102.184C55.6682 102.124 55.6363 102.064 55.6363 102.003C55.1574 99.3425 54.8382 96.6517 54.6786 93.9004C57.2643 92.6609 59.9138 91.5725 62.6272 90.605C62.6591 90.605 62.6591 90.5748 62.691 90.5748C65.3405 89.6375 68.0858 88.8514 70.8311 88.1863H70.863C73.5125 87.5514 76.194 87.0374 78.9393 86.6444C78.9712 86.6444 79.0669 86.6444 79.1308 86.6142C81.7484 86.2514 84.3979 85.9793 87.0793 85.8583C87.1432 85.8583 87.2709 85.8583 87.3666 85.8583C88.6435 85.8281 89.9523 85.7978 91.2292 85.7978C92.5699 85.7978 93.9745 85.8281 95.2514 85.8583C95.3152 85.8583 95.4429 85.8583 95.5386 85.8583C98.2201 86.0095 100.87 86.2211 103.487 86.6142C103.551 86.6142 103.615 86.6142 103.679 86.6444C106.424 87.0677 109.105 87.5816 111.755 88.2165H111.787C114.564 88.8817 117.277 89.7282 119.927 90.6655C119.959 90.6655 119.991 90.6655 119.991 90.6957C122.736 91.6632 125.386 92.7516 127.939 93.9911C130.621 95.261 133.238 96.6819 135.76 98.2541C135.792 97.8308 135.824 97.3773 135.888 96.9843C136.111 94.5051 136.239 91.9957 136.239 89.4561C134.1 88.0351 131.642 86.856 129.089 85.7072Z" fill="white"/>
  <path d="M113.423 121.104C110.914 119.983 108.309 119.049 105.607 118.364C103.292 117.741 100.847 117.274 98.4352 117.025C97.9527 116.994 97.4703 116.9 97.0522 116.869C95.6048 116.745 94.1575 116.682 92.678 116.682C91.2307 116.682 89.8477 116.714 88.4647 116.838C87.9822 116.869 87.532 116.9 87.0817 116.994C84.6052 117.274 82.2251 117.679 79.8772 118.301C77.1755 118.986 74.5382 119.92 72.0616 121.041C69.5529 122.162 67.1729 123.47 64.8893 124.964C62.5736 126.521 60.3865 128.202 58.3603 130.102C59.1643 131.565 60.0327 132.997 60.9655 134.429C61.5766 135.363 62.1555 136.266 62.7987 137.169C63.7958 138.601 64.7928 139.971 65.8542 141.341C66.4975 142.151 67.1407 142.96 67.8161 143.739C69.0062 145.171 70.2605 146.51 71.5149 147.88C72.126 148.533 72.7371 149.156 73.3803 149.779C75.0849 147.693 77.1755 145.887 79.5234 144.424C82.0321 142.867 84.8625 141.746 87.8858 141.154C89.4939 140.843 91.102 140.687 92.8388 140.687C94.6078 140.687 96.2803 140.874 97.8884 141.186C100.912 141.808 103.71 142.929 106.219 144.517C104.257 146.447 102.198 148.253 100.043 149.997C99.979 150.059 99.8825 150.121 99.8182 150.184C99.593 150.37 99.3357 150.557 99.1106 150.713C98.6281 151.087 98.1457 151.46 97.6311 151.834C97.5989 151.865 97.5346 151.896 97.5024 151.927C97.0522 152.27 96.6019 152.581 96.1194 152.923C95.9586 153.048 95.7657 153.173 95.6048 153.266C95.251 153.515 94.8972 153.764 94.5435 153.982C93.9967 154.356 93.4499 154.698 92.9032 155.072C90.7482 153.671 88.6255 152.176 86.5992 150.588C83.6081 151.336 81.0826 152.861 78.6704 154.574C78.8955 154.76 78.8802 154.76 79.1375 154.947C79.234 155.041 79.3304 155.134 79.4912 155.259C81.2924 156.722 83.1578 158.154 85.0876 159.493C85.4092 159.711 85.7308 159.929 86.0525 160.147C88.2717 161.704 90.5874 163.105 92.9996 164.443C94.1575 163.79 95.3154 163.105 96.4411 162.42C97.5668 161.735 98.6925 160.987 99.786 160.24C100.14 160.022 100.494 159.742 100.847 159.493C102.713 158.185 104.546 156.784 106.315 155.321C106.605 155.072 106.894 154.823 107.183 154.574C107.441 154.356 107.698 154.138 107.923 153.92C109.435 152.612 110.914 151.242 112.362 149.841C113.037 149.187 113.68 148.533 114.324 147.849C115.546 146.541 116.768 145.171 117.926 143.832C118.601 143.023 119.277 142.182 119.952 141.31C92.2599 123.594 74.0236 138.352 74.0236 138.352C73.9592 138.29 73.8949 138.197 73.8306 138.134C72.1903 136.142 70.6465 134.056 69.167 131.907C71.3862 130.351 73.8306 129.043 76.3714 128.016C79.0088 126.895 81.7426 126.054 84.573 125.494C86.7922 125.058 89.0758 124.809 91.3915 124.715C91.8739 124.715 92.3564 124.684 92.8388 124.684C93.3856 124.684 93.9002 124.684 94.447 124.715C96.7627 124.778 99.0463 125.058 101.233 125.525C104.096 126.116 106.83 126.957 109.435 128.078C111.976 129.168 114.388 130.475 116.607 132.001C118.891 133.558 120.981 135.332 122.879 137.294C123.522 136.36 124.165 135.395 124.744 134.429C125.613 133.028 126.449 131.658 127.253 130.226C125.13 128.327 122.975 126.583 120.66 125.058C118.344 123.532 115.932 122.224 113.423 121.104Z" fill="white"/>
  <path d="M170.141 114.54V108.586H180.302V117.043L173.617 123.809H151.826V81.6236L159.046 74.8916H180.302V93.3624H170.141V84.1947H161.987V114.54H170.141Z" fill="white"/>
  <path d="M203.195 123.809L197.18 106.116H194.506V123.809H184.379V81.7928L191.732 74.8916H212.42V105.981H206.939L213.356 123.809H203.195ZM202.293 96.9483V84.1947H194.506V96.9483H202.293Z" fill="white"/>
  <path d="M217.132 74.8916H240.594V84.1947H227.159V93.633H239.926V102.767H227.292V114.54H240.928V123.809H217.132V74.8916Z" fill="white"/>
  <path d="M244.672 74.8916H265.46L273.247 82.6385V117.043L266.463 123.809H244.672V74.8916ZM263.087 114.54V84.1947H254.798V114.54H263.087Z" fill="white"/>
  <path d="M168.075 164.443H151.216V154.784H157.641V158.562H161.628V153.625L151.428 145.833V133.404H167.884V142.634H162.052V139.329H157.854V143.386L168.075 151.156V164.443Z" fill="white"/>
  <path d="M177.279 146.155H182.793V133.404H189.218V164.443H182.793V152.036H177.279V164.443H170.853V133.404H177.279V146.155Z" fill="white"/>
  <path d="M198.401 142.935V164.443H191.975V142.935H198.401ZM198.401 133.404V141.046H191.975V133.404H198.401Z" fill="white"/>
  <path d="M200.797 133.404H215.685V139.307H207.159V145.296H215.26V151.092H207.244V158.562H215.897V164.443H200.797V133.404Z" fill="white"/>
  <path d="M218.272 164.443V133.404H224.698V158.562H233.689V164.443H218.272Z" fill="white"/>
  <path d="M236.467 133.404H249.658L254.599 138.32V160.15L250.294 164.443H236.467V133.404ZM248.152 158.562V139.307H242.893V158.562H248.152Z" fill="white"/>
  <path d="M274.025 164.443H257.165V154.784H263.591V158.562H267.578V153.625L257.377 145.833V133.404H273.834V142.634H268.002V139.329H263.803V143.386L274.025 151.156V164.443Z" fill="white"/>
</svg>